<?xml version="1.0" encoding="utf-8"?>
<!-- Generator: Adobe Illustrator 21.0.0, SVG Export Plug-In . SVG Version: 6.00 Build 0)  -->
<svg version="1.1" id="Layer_1" xmlns="http://www.w3.org/2000/svg" xmlns:xlink="http://www.w3.org/1999/xlink" x="0px" y="0px"
	 viewBox="0 0 51 31" style="enable-background:new 0 0 51 31;" xml:space="preserve">
<style type="text/css">
	.st0{fill:#EE3925;}
	.st1{fill:#082340;}
</style>
<rect class="st0" width="51" height="31"/>
<g>
	<path class="st1" d="M-72.1-45.9l-3-5.8h-3.1v5.8h-1.4V-59h5c0.6,0,1.1,0.1,1.6,0.2s0.9,0.4,1.2,0.7s0.6,0.7,0.8,1.2
		c0.2,0.5,0.3,1,0.3,1.5c0,1-0.3,1.7-0.8,2.3s-1.2,1-2.1,1.2l3.1,5.9H-72.1z M-72.9-57.1c-0.5-0.4-1.1-0.6-1.9-0.6h-3.5v4.8h3.5
		c0.8,0,1.4-0.2,1.9-0.6c0.5-0.4,0.7-1,0.7-1.8C-72.2-56.1-72.4-56.8-72.9-57.1z"/>
	<path class="st1" d="M-67-50.1c0,1,0.2,1.8,0.7,2.3c0.5,0.5,1.1,0.8,2,0.8c0.5,0,1-0.1,1.3-0.2c0.3-0.2,0.7-0.4,1.1-0.8l0.9,0.8
		c-0.2,0.2-0.5,0.4-0.7,0.6s-0.5,0.3-0.7,0.4c-0.3,0.1-0.5,0.2-0.9,0.3c-0.3,0.1-0.7,0.1-1,0.1c-0.6,0-1.1-0.1-1.6-0.3
		c-0.5-0.2-0.9-0.5-1.2-0.8c-0.3-0.4-0.6-0.9-0.8-1.4c-0.2-0.6-0.3-1.3-0.3-2.1c0-1.5,0.3-2.6,1-3.4c0.7-0.8,1.6-1.2,2.7-1.2
		c1.2,0,2.1,0.4,2.7,1.2s1,1.9,1,3.2v0.6H-67z M-62.3-51.5c0-0.1,0-0.3,0-0.4c0-0.1,0-0.2-0.1-0.3c0-0.1-0.1-0.2-0.1-0.3
		c-0.2-0.4-0.4-0.7-0.8-1c-0.4-0.2-0.8-0.4-1.3-0.4s-0.9,0.1-1.3,0.4c-0.4,0.2-0.7,0.6-0.8,1c-0.1,0.2-0.2,0.5-0.2,0.7
		c0,0.2-0.1,0.5-0.1,0.8h4.8C-62.2-51.2-62.2-51.4-62.3-51.5z"/>
	<path class="st1" d="M-52.9-45.9v-0.9c-0.4,0.4-0.7,0.6-1.1,0.8c-0.4,0.1-0.9,0.2-1.5,0.2c-0.6,0-1.1-0.1-1.5-0.2
		c-0.4-0.1-0.7-0.3-1-0.6c-0.2-0.2-0.4-0.5-0.5-0.8s-0.2-0.7-0.2-1c0-0.8,0.3-1.4,0.8-1.9c0.5-0.5,1.3-0.7,2.3-0.7h2.7v-0.9
		c0-0.7-0.2-1.2-0.5-1.5s-1-0.5-1.8-0.5c-0.6,0-1,0.1-1.4,0.2c-0.3,0.2-0.6,0.4-0.9,0.8l-0.9-0.8c0.4-0.5,0.9-0.9,1.4-1.1
		c0.5-0.2,1.1-0.3,1.8-0.3c1.2,0,2.1,0.3,2.7,0.8s0.9,1.3,0.9,2.3v6.1H-52.9z M-52.9-50.1h-2.5c-1.4,0-2,0.5-2,1.6
		c0,0.5,0.2,0.9,0.5,1.2c0.3,0.3,0.9,0.4,1.6,0.4c0.4,0,0.8,0,1.1-0.1c0.3-0.1,0.6-0.2,0.9-0.5c0.3-0.3,0.5-0.8,0.5-1.6V-50.1z"/>
	<path class="st1" d="M-43-45.9V-47c-0.4,0.5-0.8,0.8-1.2,1c-0.4,0.2-0.9,0.2-1.4,0.2c-0.5,0-0.9-0.1-1.3-0.2
		c-0.4-0.1-0.7-0.3-0.9-0.6c-0.2-0.2-0.4-0.5-0.6-0.8c-0.1-0.3-0.3-0.6-0.3-0.9c-0.1-0.3-0.1-0.7-0.2-1c0-0.4,0-0.7,0-1.1
		c0-0.4,0-0.7,0-1.1c0-0.4,0.1-0.7,0.2-1c0.1-0.3,0.2-0.7,0.3-0.9c0.1-0.3,0.3-0.6,0.6-0.8c0.2-0.2,0.6-0.4,0.9-0.6
		c0.4-0.1,0.8-0.2,1.3-0.2c0.5,0,1,0.1,1.4,0.2s0.8,0.5,1.2,0.9l0-5.1h1.3v13.1H-43z M-43.1-51.7c0-0.4-0.2-0.8-0.3-1.1
		c-0.2-0.3-0.4-0.6-0.7-0.8c-0.3-0.2-0.7-0.3-1.2-0.3c-0.5,0-0.9,0.1-1.2,0.3c-0.3,0.2-0.5,0.5-0.7,0.8c-0.2,0.3-0.3,0.7-0.3,1.1
		c-0.1,0.4-0.1,0.8-0.1,1.3c0,0.4,0,0.9,0.1,1.3c0.1,0.4,0.2,0.8,0.3,1.1c0.2,0.3,0.4,0.6,0.7,0.8c0.3,0.2,0.7,0.3,1.2,0.3
		c0.5,0,0.9-0.1,1.2-0.3c0.3-0.2,0.5-0.5,0.7-0.8c0.2-0.3,0.3-0.7,0.3-1.1S-43-50-43-50.4C-43-50.9-43.1-51.3-43.1-51.7z"/>
	<path class="st1" d="M-23.7-45.9v-10l-3.6,7.9h-1.2l-3.6-7.9v10h-1.4V-59h1.4l4.3,9.3l4.2-9.3h1.4v13.1H-23.7z"/>
	<path class="st1" d="M-12.1-48.4c-0.1,0.6-0.4,1.2-0.9,1.6c-0.3,0.3-0.7,0.6-1.1,0.8c-0.4,0.2-0.9,0.3-1.5,0.3
		c-0.6,0-1-0.1-1.5-0.3c-0.4-0.2-0.8-0.4-1.1-0.8c-0.2-0.2-0.4-0.5-0.6-0.8c-0.1-0.3-0.3-0.6-0.3-0.9c-0.1-0.3-0.1-0.6-0.2-0.9
		s0-0.7,0-1c0-0.3,0-0.7,0-1c0-0.3,0.1-0.7,0.2-1c0.1-0.3,0.2-0.6,0.3-0.9c0.1-0.3,0.3-0.5,0.6-0.8c0.3-0.3,0.7-0.6,1.1-0.8
		c0.4-0.2,0.9-0.3,1.5-0.3c0.6,0,1,0.1,1.5,0.3c0.4,0.2,0.8,0.4,1.1,0.8c0.5,0.5,0.8,1,0.9,1.6c0.1,0.6,0.2,1.3,0.2,2
		S-11.9-49.1-12.1-48.4z M-13.2-51.2c0-0.3,0-0.5-0.1-0.8c0-0.2-0.1-0.5-0.2-0.7c-0.1-0.2-0.2-0.4-0.4-0.6c-0.4-0.4-1-0.7-1.7-0.7
		c-0.7,0-1.2,0.2-1.6,0.7c-0.2,0.2-0.3,0.4-0.4,0.6c-0.1,0.2-0.2,0.4-0.2,0.7c-0.1,0.2-0.1,0.5-0.1,0.8c0,0.3,0,0.5,0,0.8
		c0,0.3,0,0.5,0,0.8c0,0.3,0,0.5,0.1,0.8c0.1,0.2,0.1,0.5,0.2,0.7c0.1,0.2,0.2,0.4,0.4,0.6c0.4,0.4,1,0.7,1.6,0.7
		c0.7,0,1.2-0.2,1.7-0.7c0.2-0.2,0.3-0.3,0.4-0.6c0.1-0.2,0.2-0.5,0.2-0.7s0.1-0.5,0.1-0.8c0-0.3,0-0.5,0-0.8
		C-13.2-50.7-13.2-50.9-13.2-51.2z"/>
	<path class="st1" d="M-4-53.2c-0.2-0.2-0.5-0.4-0.7-0.5c-0.2-0.1-0.5-0.1-0.9-0.1c-0.3,0-0.6,0.1-0.9,0.2c-0.3,0.1-0.5,0.3-0.7,0.5
		c-0.2,0.2-0.3,0.5-0.4,0.8s-0.2,0.6-0.2,1v5.6H-9v-9.1h1.3v1.1c0.2-0.4,0.6-0.7,1.1-0.9c0.5-0.2,1-0.3,1.5-0.3
		c0.4,0,0.8,0.1,1.2,0.2c0.4,0.1,0.7,0.3,1,0.7L-4-53.2z"/>
	<path class="st1" d="M-1.1-50.1c0,1,0.2,1.8,0.7,2.3c0.5,0.5,1.1,0.8,2,0.8c0.5,0,1-0.1,1.3-0.2C3.3-47.4,3.6-47.6,4-48l0.9,0.8
		c-0.2,0.2-0.5,0.4-0.7,0.6c-0.2,0.2-0.5,0.3-0.7,0.4c-0.3,0.1-0.5,0.2-0.9,0.3c-0.3,0.1-0.7,0.1-1,0.1c-0.6,0-1.1-0.1-1.6-0.3
		c-0.5-0.2-0.9-0.5-1.2-0.8c-0.3-0.4-0.6-0.9-0.8-1.4s-0.3-1.3-0.3-2.1c0-1.5,0.3-2.6,1-3.4c0.7-0.8,1.6-1.2,2.7-1.2
		c1.2,0,2.1,0.4,2.7,1.2s1,1.9,1,3.2v0.6H-1.1z M3.7-51.5c0-0.1,0-0.3,0-0.4s0-0.2-0.1-0.3c0-0.1-0.1-0.2-0.1-0.3
		c-0.2-0.4-0.4-0.7-0.8-1c-0.4-0.2-0.8-0.4-1.3-0.4S0.4-53.8,0-53.6c-0.4,0.2-0.7,0.6-0.8,1C-0.9-52.3-1-52.1-1-51.9
		c0,0.2-0.1,0.5-0.1,0.8h4.8C3.7-51.2,3.7-51.4,3.7-51.5z"/>
	<path class="st1" d="M21.3-43.5h-1.7l6.7-6.7H11.8v-1.3h14.5l-6.7-6.7h1.7l7.3,7.3L21.3-43.5z"/>
</g>
<g>
	<path class="st1" d="M26.6,22.8h-1.7l6.7-6.7H17.1v-1.3h14.5l-6.7-6.7h1.7l7.3,7.3L26.6,22.8z"/>
</g>
</svg>
