<?xml version="1.0" encoding="utf-8"?>
<!-- Generator: Adobe Illustrator 21.0.0, SVG Export Plug-In . SVG Version: 6.00 Build 0)  -->
<svg version="1.1" id="Layer_1" xmlns="http://www.w3.org/2000/svg" xmlns:xlink="http://www.w3.org/1999/xlink" x="0px" y="0px"
	 viewBox="0 0 160 47" style="enable-background:new 0 0 160 47;" xml:space="preserve">
<style type="text/css">
	.st0{fill:#EE3925;}
	.st1{fill:#082340;}
</style>
<rect class="st0" width="160" height="47"/>
<g>
	<path class="st1" d="M47.3,28.9V15.8h8.1V17h-6.7v4.6h5.7v1.3h-5.7v4.7h6.7v1.3H47.3z"/>
	<path class="st1" d="M63.9,28.9v-5.6c0-0.8-0.2-1.4-0.6-1.8c-0.4-0.4-0.9-0.6-1.6-0.6s-1.2,0.2-1.6,0.6s-0.6,1-0.6,1.8v5.6h-1.3
		v-9.1h1.3v1c0.3-0.4,0.7-0.6,1.1-0.8c0.4-0.2,0.9-0.3,1.4-0.3c1,0,1.8,0.3,2.3,0.8c0.6,0.6,0.9,1.5,0.9,2.5v5.8H63.9z"/>
	<path class="st1" d="M71,28.9c-0.4,0-0.7-0.1-1-0.2c-0.3-0.1-0.5-0.3-0.7-0.5c-0.2-0.2-0.3-0.5-0.4-0.8c-0.1-0.3-0.1-0.6-0.1-0.9
		v-5.6h-1.1v-1h1.1V17H70v2.8h1.9v1H70v5.5c0,0.4,0.1,0.7,0.3,1s0.5,0.3,0.9,0.3h0.7v1.1H71z"/>
	<path class="st1" d="M75.2,24.7c0,1,0.2,1.8,0.7,2.3s1.1,0.8,2,0.8c0.5,0,1-0.1,1.3-0.2c0.3-0.2,0.7-0.4,1.1-0.8l0.9,0.8
		c-0.2,0.2-0.5,0.4-0.7,0.6c-0.2,0.2-0.5,0.3-0.7,0.4c-0.3,0.1-0.5,0.2-0.9,0.3c-0.3,0.1-0.7,0.1-1,0.1c-0.6,0-1.1-0.1-1.6-0.3
		c-0.5-0.2-0.9-0.5-1.2-0.8c-0.3-0.4-0.6-0.9-0.8-1.4c-0.2-0.6-0.3-1.3-0.3-2.1c0-1.5,0.3-2.6,1-3.4c0.7-0.8,1.6-1.2,2.7-1.2
		c1.2,0,2.1,0.4,2.7,1.2s1,1.9,1,3.2v0.6H75.2z M80,23.2c0-0.1,0-0.3,0-0.4s0-0.2-0.1-0.3c0-0.1-0.1-0.2-0.1-0.3
		c-0.2-0.4-0.4-0.7-0.8-1c-0.4-0.2-0.8-0.4-1.3-0.4s-0.9,0.1-1.3,0.4c-0.4,0.2-0.7,0.6-0.8,1c-0.1,0.2-0.2,0.5-0.2,0.7
		c0,0.2-0.1,0.5-0.1,0.8H80C80,23.5,80,23.3,80,23.2z"/>
	<path class="st1" d="M89.2,21.5c-0.2-0.2-0.5-0.4-0.7-0.5s-0.5-0.1-0.9-0.1c-0.3,0-0.6,0.1-0.9,0.2c-0.3,0.1-0.5,0.3-0.7,0.5
		c-0.2,0.2-0.3,0.5-0.4,0.8c-0.1,0.3-0.2,0.6-0.2,1v5.6h-1.3v-9.1h1.3v1.1c0.2-0.4,0.6-0.7,1.1-0.9s1-0.3,1.5-0.3
		c0.4,0,0.8,0.1,1.2,0.2c0.3,0.1,0.7,0.3,1,0.7L89.2,21.5z"/>
	<path class="st1" d="M105.4,31.2h-1.7l6.7-6.7H95.8v-1.3h14.5l-6.7-6.7h1.7l7.3,7.3L105.4,31.2z"/>
</g>
</svg>
