<?xml version="1.0" encoding="utf-8"?>
<!-- Generator: Adobe Illustrator 21.0.0, SVG Export Plug-In . SVG Version: 6.00 Build 0)  -->
<svg version="1.1" id="Layer_1" xmlns="http://www.w3.org/2000/svg" xmlns:xlink="http://www.w3.org/1999/xlink" x="0px" y="0px"
	 viewBox="0 0 104 59" style="enable-background:new 0 0 104 59;" xml:space="preserve">
<style type="text/css">
	.st0{fill:#EE3925;}
	.st1{fill:#082340;}
</style>
<rect x="0" class="st0" width="104" height="59"/>
<g>
	<path class="st1" d="M-45.6-31.9l-3-5.8h-3.1v5.8h-1.4V-45h5c0.6,0,1.1,0.1,1.6,0.2s0.9,0.4,1.2,0.7s0.6,0.7,0.8,1.2
		c0.2,0.5,0.3,1,0.3,1.5c0,1-0.3,1.7-0.8,2.3s-1.2,1-2.1,1.2l3.1,5.9H-45.6z M-46.4-43.1c-0.5-0.4-1.1-0.6-1.9-0.6h-3.5v4.8h3.5
		c0.8,0,1.4-0.2,1.9-0.6c0.5-0.4,0.7-1,0.7-1.8C-45.7-42.1-45.9-42.8-46.4-43.1z"/>
	<path class="st1" d="M-40.5-36.1c0,1,0.2,1.8,0.7,2.3c0.5,0.5,1.1,0.8,2,0.8c0.5,0,1-0.1,1.3-0.2c0.3-0.2,0.7-0.4,1.1-0.8l0.9,0.8
		c-0.2,0.2-0.5,0.4-0.7,0.6s-0.5,0.3-0.7,0.4c-0.3,0.1-0.5,0.2-0.9,0.3c-0.3,0.1-0.7,0.1-1,0.1c-0.6,0-1.1-0.1-1.6-0.3
		c-0.5-0.2-0.9-0.5-1.2-0.8c-0.3-0.4-0.6-0.9-0.8-1.4c-0.2-0.6-0.3-1.3-0.3-2.1c0-1.5,0.3-2.6,1-3.4c0.7-0.8,1.6-1.2,2.7-1.2
		c1.2,0,2.1,0.4,2.7,1.2s1,1.9,1,3.2v0.6H-40.5z M-35.8-37.5c0-0.1,0-0.3,0-0.4c0-0.1,0-0.2-0.1-0.3c0-0.1-0.1-0.2-0.1-0.3
		c-0.2-0.4-0.4-0.7-0.8-1c-0.4-0.2-0.8-0.4-1.3-0.4s-0.9,0.1-1.3,0.4c-0.4,0.2-0.7,0.6-0.8,1c-0.1,0.2-0.2,0.5-0.2,0.7
		c0,0.2-0.1,0.5-0.1,0.8h4.8C-35.7-37.2-35.7-37.4-35.8-37.5z"/>
	<path class="st1" d="M-26.4-31.9v-0.9c-0.4,0.4-0.7,0.6-1.1,0.8c-0.4,0.1-0.9,0.2-1.5,0.2c-0.6,0-1.1-0.1-1.5-0.2
		c-0.4-0.1-0.7-0.3-1-0.6c-0.2-0.2-0.4-0.5-0.5-0.8s-0.2-0.7-0.2-1c0-0.8,0.3-1.4,0.8-1.9c0.5-0.5,1.3-0.7,2.3-0.7h2.7v-0.9
		c0-0.7-0.2-1.2-0.5-1.5s-1-0.5-1.8-0.5c-0.6,0-1,0.1-1.4,0.2c-0.3,0.2-0.6,0.4-0.9,0.8l-0.9-0.8c0.4-0.5,0.9-0.9,1.4-1.1
		c0.5-0.2,1.1-0.3,1.8-0.3c1.2,0,2.1,0.3,2.7,0.8s0.9,1.3,0.9,2.3v6.1H-26.4z M-26.4-36.1H-29c-1.4,0-2,0.5-2,1.6
		c0,0.5,0.2,0.9,0.5,1.2c0.3,0.3,0.9,0.4,1.6,0.4c0.4,0,0.8,0,1.1-0.1c0.3-0.1,0.6-0.2,0.9-0.5c0.3-0.3,0.5-0.8,0.5-1.6V-36.1z"/>
	<path class="st1" d="M-16.5-31.9V-33c-0.4,0.5-0.8,0.8-1.2,1c-0.4,0.2-0.9,0.2-1.4,0.2c-0.5,0-0.9-0.1-1.3-0.2
		c-0.4-0.1-0.7-0.3-0.9-0.6c-0.2-0.2-0.4-0.5-0.6-0.8c-0.1-0.3-0.3-0.6-0.3-0.9c-0.1-0.3-0.1-0.7-0.2-1c0-0.4,0-0.7,0-1.1
		c0-0.4,0-0.7,0-1.1c0-0.4,0.1-0.7,0.2-1c0.1-0.3,0.2-0.7,0.3-0.9c0.1-0.3,0.3-0.6,0.6-0.8c0.2-0.2,0.6-0.4,0.9-0.6
		c0.4-0.1,0.8-0.2,1.3-0.2c0.5,0,1,0.1,1.4,0.2s0.8,0.5,1.2,0.9l0-5.1h1.3v13.1H-16.5z M-16.6-37.7c0-0.4-0.2-0.8-0.3-1.1
		c-0.2-0.3-0.4-0.6-0.7-0.8c-0.3-0.2-0.7-0.3-1.2-0.3c-0.5,0-0.9,0.1-1.2,0.3c-0.3,0.2-0.5,0.5-0.7,0.8c-0.2,0.3-0.3,0.7-0.3,1.1
		c-0.1,0.4-0.1,0.8-0.1,1.3c0,0.4,0,0.9,0.1,1.3c0.1,0.4,0.2,0.8,0.3,1.1c0.2,0.3,0.4,0.6,0.7,0.8c0.3,0.2,0.7,0.3,1.2,0.3
		c0.5,0,0.9-0.1,1.2-0.3c0.3-0.2,0.5-0.5,0.7-0.8c0.2-0.3,0.3-0.7,0.3-1.1s0.1-0.8,0.1-1.3C-16.5-36.9-16.6-37.3-16.6-37.7z"/>
	<path class="st1" d="M2.8-31.9v-10L-0.8-34H-2l-3.6-7.9v10H-7V-45h1.4l4.3,9.3L2.8-45h1.4v13.1H2.8z"/>
	<path class="st1" d="M14.4-34.4c-0.1,0.6-0.4,1.2-0.9,1.6c-0.3,0.3-0.7,0.6-1.1,0.8c-0.4,0.2-0.9,0.3-1.5,0.3c-0.6,0-1-0.1-1.5-0.3
		c-0.4-0.2-0.8-0.4-1.1-0.8c-0.2-0.2-0.4-0.5-0.6-0.8c-0.1-0.3-0.3-0.6-0.3-0.9c-0.1-0.3-0.1-0.6-0.2-0.9s0-0.7,0-1c0-0.3,0-0.7,0-1
		c0-0.3,0.1-0.7,0.2-1c0.1-0.3,0.2-0.6,0.3-0.9c0.1-0.3,0.3-0.5,0.6-0.8c0.3-0.3,0.7-0.6,1.1-0.8c0.4-0.2,0.9-0.3,1.5-0.3
		c0.6,0,1,0.1,1.5,0.3c0.4,0.2,0.8,0.4,1.1,0.8c0.5,0.5,0.8,1,0.9,1.6c0.1,0.6,0.2,1.3,0.2,2S14.6-35.1,14.4-34.4z M13.3-37.2
		c0-0.3,0-0.5-0.1-0.8c0-0.2-0.1-0.5-0.2-0.7c-0.1-0.2-0.2-0.4-0.4-0.6c-0.4-0.4-1-0.7-1.7-0.7c-0.7,0-1.2,0.2-1.6,0.7
		C9.1-39,9-38.9,8.9-38.6c-0.1,0.2-0.2,0.4-0.2,0.7c-0.1,0.2-0.1,0.5-0.1,0.8c0,0.3,0,0.5,0,0.8c0,0.3,0,0.5,0,0.8
		c0,0.3,0,0.5,0.1,0.8c0.1,0.2,0.1,0.5,0.2,0.7C9-34,9.1-33.8,9.3-33.6c0.4,0.4,1,0.7,1.6,0.7c0.7,0,1.2-0.2,1.7-0.7
		c0.2-0.2,0.3-0.3,0.4-0.6c0.1-0.2,0.2-0.5,0.2-0.7s0.1-0.5,0.1-0.8c0-0.3,0-0.5,0-0.8C13.3-36.7,13.3-36.9,13.3-37.2z"/>
	<path class="st1" d="M22.5-39.2c-0.2-0.2-0.5-0.4-0.7-0.5c-0.2-0.1-0.5-0.1-0.9-0.1c-0.3,0-0.6,0.1-0.9,0.2
		c-0.3,0.1-0.5,0.3-0.7,0.5c-0.2,0.2-0.3,0.5-0.4,0.8s-0.2,0.6-0.2,1v5.6h-1.3v-9.1h1.3v1.1c0.2-0.4,0.6-0.7,1.1-0.9
		c0.5-0.2,1-0.3,1.5-0.3c0.4,0,0.8,0.1,1.2,0.2c0.4,0.1,0.7,0.3,1,0.7L22.5-39.2z"/>
	<path class="st1" d="M25.4-36.1c0,1,0.2,1.8,0.7,2.3c0.5,0.5,1.1,0.8,2,0.8c0.5,0,1-0.1,1.3-0.2c0.3-0.2,0.7-0.4,1.1-0.8l0.9,0.8
		c-0.2,0.2-0.5,0.4-0.7,0.6c-0.2,0.2-0.5,0.3-0.7,0.4c-0.3,0.1-0.5,0.2-0.9,0.3c-0.3,0.1-0.7,0.1-1,0.1c-0.6,0-1.1-0.1-1.6-0.3
		c-0.5-0.2-0.9-0.5-1.2-0.8c-0.3-0.4-0.6-0.9-0.8-1.4s-0.3-1.3-0.3-2.1c0-1.5,0.3-2.6,1-3.4c0.7-0.8,1.6-1.2,2.7-1.2
		c1.2,0,2.1,0.4,2.7,1.2s1,1.9,1,3.2v0.6H25.4z M30.2-37.5c0-0.1,0-0.3,0-0.4s0-0.2-0.1-0.3c0-0.1-0.1-0.2-0.1-0.3
		c-0.2-0.4-0.4-0.7-0.8-1c-0.4-0.2-0.8-0.4-1.3-0.4s-0.9,0.1-1.3,0.4c-0.4,0.2-0.7,0.6-0.8,1c-0.1,0.2-0.2,0.5-0.2,0.7
		c0,0.2-0.1,0.5-0.1,0.8h4.8C30.2-37.2,30.2-37.4,30.2-37.5z"/>
	<path class="st1" d="M47.8-29.5h-1.7l6.7-6.7H38.3v-1.3h14.5l-6.7-6.7h1.7l7.3,7.3L47.8-29.5z"/>
</g>
<g>
	<path class="st1" d="M54.7,47.8h-4.3l16.7-16.6H31v-3.2h36.1L50.4,11.3h4.3L73,29.5L54.7,47.8z"/>
</g>
</svg>
