<?xml version="1.0" encoding="utf-8"?>
<!-- Generator: Adobe Illustrator 21.0.0, SVG Export Plug-In . SVG Version: 6.00 Build 0)  -->
<svg version="1.1" id="Layer_1" xmlns="http://www.w3.org/2000/svg" xmlns:xlink="http://www.w3.org/1999/xlink" x="0px" y="0px"
	 viewBox="0 0 160 47" style="enable-background:new 0 0 160 47;" xml:space="preserve">
<style type="text/css">
	.st0{fill:#D1D1D1;}
	.st1{fill:#082340;}
	.st2{enable-background:new    ;}
</style>
<rect class="st0" width="160" height="47"/>
<g>
	<path class="st1" d="M33.4-28.5l-3-5.8h-3.1v5.8h-1.4v-13.1h5c0.6,0,1.1,0.1,1.6,0.2s0.9,0.4,1.2,0.7s0.6,0.7,0.8,1.2
		s0.3,1,0.3,1.5c0,1-0.3,1.7-0.8,2.3s-1.2,1-2.1,1.2l3.1,5.9L33.4-28.5L33.4-28.5z M32.6-39.8c-0.5-0.4-1.1-0.6-1.9-0.6h-3.5v4.8
		h3.5c0.8,0,1.4-0.2,1.9-0.6c0.5-0.4,0.7-1,0.7-1.8S33.1-39.4,32.6-39.8z"/>
	<path class="st1" d="M38.5-32.7c0,1,0.2,1.8,0.7,2.3s1.1,0.8,2,0.8c0.5,0,1-0.1,1.3-0.2c0.3-0.2,0.7-0.4,1.1-0.8l0.9,0.8
		c-0.2,0.2-0.5,0.4-0.7,0.6s-0.5,0.3-0.7,0.4c-0.3,0.1-0.5,0.2-0.9,0.3c-0.3,0.1-0.7,0.1-1,0.1c-0.6,0-1.1-0.1-1.6-0.3
		c-0.5-0.2-0.9-0.5-1.2-0.8c-0.3-0.4-0.6-0.9-0.8-1.4c-0.2-0.6-0.3-1.3-0.3-2.1c0-1.5,0.3-2.6,1-3.4s1.6-1.2,2.7-1.2
		c1.2,0,2.1,0.4,2.7,1.2c0.6,0.8,1,1.9,1,3.2v0.6L38.5-32.7L38.5-32.7z M43.2-34.2c0-0.1,0-0.3,0-0.4c0-0.1,0-0.2-0.1-0.3
		c0-0.1-0.1-0.2-0.1-0.3c-0.2-0.4-0.4-0.7-0.8-1c-0.4-0.2-0.8-0.4-1.3-0.4s-0.9,0.1-1.3,0.4c-0.4,0.2-0.7,0.6-0.8,1
		c-0.1,0.2-0.2,0.5-0.2,0.7s-0.1,0.5-0.1,0.8h4.8C43.3-33.9,43.3-34.1,43.2-34.2z"/>
	<path class="st1" d="M52.6-28.5v-0.9c-0.4,0.4-0.7,0.6-1.1,0.8c-0.5,0.1-1,0.2-1.6,0.2s-1.1-0.1-1.5-0.2s-0.7-0.3-1-0.6
		c-0.2-0.2-0.4-0.5-0.5-0.8s-0.2-0.7-0.2-1c0-0.8,0.3-1.4,0.8-1.9s1.3-0.7,2.3-0.7h2.7v-0.9c0-0.7-0.2-1.2-0.5-1.5s-1-0.5-1.8-0.5
		c-0.6,0-1,0.1-1.4,0.2c-0.3,0.2-0.6,0.4-0.9,0.8L47-36.4c0.4-0.5,0.9-0.9,1.4-1.1s1.1-0.3,1.8-0.3c1.2,0,2.1,0.3,2.7,0.8
		s0.9,1.3,0.9,2.3v6.1h-1.2C52.6-28.6,52.6-28.5,52.6-28.5z M52.6-32.7H50c-1.4,0-2,0.5-2,1.6c0,0.5,0.2,0.9,0.5,1.2
		c0.3,0.3,0.9,0.4,1.6,0.4c0.4,0,0.8,0,1.1-0.1s0.6-0.2,0.9-0.5c0.3-0.3,0.5-0.8,0.5-1.6V-32.7z"/>
	<path class="st1" d="M62.5-28.5v-1.1c-0.4,0.5-0.8,0.8-1.2,1s-0.9,0.2-1.4,0.2s-0.9-0.1-1.3-0.2c-0.4-0.1-0.7-0.3-0.9-0.6
		c-0.2-0.2-0.4-0.5-0.6-0.8c-0.1-0.3-0.3-0.6-0.3-0.9c-0.1-0.3-0.1-0.7-0.2-1c0-0.4,0-0.7,0-1.1s0-0.7,0-1.1c0-0.4,0.1-0.7,0.2-1
		c0.1-0.3,0.2-0.7,0.3-0.9c0.1-0.3,0.3-0.6,0.6-0.8c0.2-0.2,0.6-0.4,0.9-0.6c0.4-0.1,0.8-0.2,1.3-0.2s1,0.1,1.4,0.2
		c0.4,0.1,0.8,0.5,1.2,0.9v-5.1h1.3v13.1C63.8-28.5,62.5-28.5,62.5-28.5z M62.4-34.4c0-0.4-0.2-0.8-0.3-1.1
		c-0.2-0.3-0.4-0.6-0.7-0.8s-0.7-0.3-1.2-0.3s-0.9,0.1-1.2,0.3s-0.5,0.5-0.7,0.8S58-34.8,58-34.4c-0.1,0.4-0.1,0.8-0.1,1.3
		c0,0.4,0,0.9,0.1,1.3c0.1,0.4,0.2,0.8,0.3,1.1c0.2,0.3,0.4,0.6,0.7,0.8c0.3,0.2,0.7,0.3,1.2,0.3s0.9-0.1,1.2-0.3
		c0.3-0.2,0.5-0.5,0.7-0.8s0.3-0.7,0.3-1.1c0-0.4,0.1-0.8,0.1-1.3C62.5-33.5,62.4-33.9,62.4-34.4z"/>
	<path class="st1" d="M81.8-28.5v-10l-3.6,7.9H77l-3.6-7.9v10H72v-13.1h1.4l4.3,9.3l4.2-9.3h1.4v13.1C83.3-28.5,81.8-28.5,81.8-28.5
		z"/>
	<path class="st1" d="M93.4-31.1c-0.1,0.6-0.4,1.2-0.9,1.6c-0.3,0.3-0.7,0.6-1.1,0.8c-0.4,0.2-0.9,0.3-1.5,0.3s-1-0.1-1.5-0.3
		c-0.4-0.2-0.8-0.4-1.1-0.8c-0.2-0.2-0.4-0.5-0.6-0.8c-0.1-0.3-0.3-0.6-0.3-0.9c-0.1-0.3-0.1-0.6-0.2-0.9s0-0.7,0-1s0-0.7,0-1
		s0.1-0.7,0.2-1s0.2-0.6,0.3-0.9s0.3-0.5,0.6-0.8s0.7-0.6,1.1-0.8s0.9-0.3,1.5-0.3s1,0.1,1.5,0.3c0.4,0.2,0.8,0.4,1.1,0.8
		c0.5,0.5,0.8,1,0.9,1.6s0.2,1.3,0.2,2S93.6-31.7,93.4-31.1z M92.3-33.8c0-0.3,0-0.5-0.1-0.8c0-0.2-0.1-0.5-0.2-0.7
		s-0.2-0.4-0.4-0.6c-0.4-0.4-1-0.7-1.7-0.7s-1.2,0.2-1.6,0.7c-0.2,0.2-0.3,0.4-0.4,0.6c-0.1,0.2-0.2,0.4-0.2,0.7
		c-0.1,0.2-0.1,0.5-0.1,0.8s0,0.5,0,0.8s0,0.5,0,0.8s0,0.5,0.1,0.8c0.1,0.2,0.1,0.5,0.2,0.7s0.2,0.4,0.4,0.6c0.4,0.4,1,0.7,1.6,0.7
		c0.7,0,1.2-0.2,1.7-0.7c0.2-0.2,0.3-0.3,0.4-0.6c0.1-0.2,0.2-0.5,0.2-0.7s0.1-0.5,0.1-0.8s0-0.5,0-0.8S92.3-33.6,92.3-33.8z"/>
	<path class="st1" d="M101.5-35.9c-0.2-0.2-0.5-0.4-0.7-0.5s-0.5-0.1-0.9-0.1c-0.3,0-0.6,0.1-0.9,0.2c-0.3,0.1-0.5,0.3-0.7,0.5
		S98-35.3,97.9-35s-0.2,0.6-0.2,1v5.6h-1.3v-9.1h1.3v1.1c0.2-0.4,0.6-0.7,1.1-0.9s1-0.3,1.5-0.3c0.4,0,0.8,0.1,1.2,0.2
		c0.4,0.1,0.7,0.3,1,0.7L101.5-35.9z"/>
	<path class="st1" d="M104.4-32.7c0,1,0.2,1.8,0.7,2.3s1.1,0.8,2,0.8c0.5,0,1-0.1,1.3-0.2c0.3-0.2,0.7-0.4,1.1-0.8l0.9,0.8
		c-0.2,0.2-0.5,0.4-0.7,0.6s-0.5,0.3-0.7,0.4c-0.3,0.1-0.5,0.2-0.9,0.3c-0.3,0.1-0.7,0.1-1,0.1c-0.6,0-1.1-0.1-1.6-0.3
		c-0.5-0.2-0.9-0.5-1.2-0.8c-0.3-0.4-0.6-0.9-0.8-1.4c-0.2-0.5-0.3-1.3-0.3-2.1c0-1.5,0.3-2.6,1-3.4s1.6-1.2,2.7-1.2
		c1.2,0,2.1,0.4,2.7,1.2s1,1.9,1,3.2v0.6L104.4-32.7L104.4-32.7z M109.2-34.2c0-0.1,0-0.3,0-0.4c0-0.1,0-0.2-0.1-0.3
		c0-0.1-0.1-0.2-0.1-0.3c-0.2-0.4-0.4-0.7-0.8-1c-0.4-0.2-0.8-0.4-1.3-0.4s-0.9,0.1-1.3,0.4c-0.4,0.2-0.7,0.6-0.8,1
		c-0.1,0.2-0.2,0.5-0.2,0.7s-0.1,0.5-0.1,0.8h4.8C109.2-33.9,109.2-34.1,109.2-34.2z"/>
	<path class="st1" d="M126.8-26.2h-1.7l6.7-6.7h-14.5v-1.3h14.5l-6.7-6.7h1.7l7.3,7.3L126.8-26.2z"/>
</g>
<text transform="matrix(1 0 0 1 270.4315 -691.7245)" class="st1" style="font-family:'DIN-Regular'; font-size:18.4042px;">Read More &gt;</text>
<g class="st2">
	<path class="st1" d="M50.6,38.7V8h2.9l8.7,20.3V8h3.6v30.6H63l-8.8-20.9v20.9H50.6z"/>
	<path class="st1" d="M76.2,39c-1.3,0-2.3-0.2-3.2-0.5c-0.9-0.4-1.5-0.9-2-1.7s-0.8-1.7-1-2.7s-0.3-2.3-0.3-3.8v-5
		c0-1.5,0.1-2.8,0.3-3.8s0.5-1.9,1-2.7c0.5-0.8,1.1-1.3,2-1.7c0.8-0.4,1.9-0.5,3.1-0.5c0.8,0,1.5,0.1,2.1,0.2s1.1,0.4,1.6,0.6
		c0.4,0.3,0.8,0.6,1.1,1c0.3,0.4,0.6,0.9,0.7,1.4c0.2,0.5,0.3,1.1,0.5,1.8c0.1,0.7,0.2,1.4,0.2,2.1c0,0.7,0.1,1.5,0.1,2.4l0,1.8
		h-8.6v2.9c0,0,0,0.1,0,0.2c0,0.6,0,1.1,0,1.4c0,0.3,0,0.7,0.1,1.2c0,0.5,0.1,0.8,0.2,1.1c0.1,0.2,0.2,0.5,0.4,0.7s0.4,0.4,0.7,0.5
		c0.3,0.1,0.6,0.2,1,0.2c0.9,0,1.5-0.3,1.8-0.9s0.5-1.5,0.5-2.7V31h4v0.9C82.4,36.6,80.4,39,76.2,39z M73.8,25.6h4.6v-2
		c0-0.6,0-1.1,0-1.5c0-0.4-0.1-0.8-0.2-1.1s-0.2-0.7-0.4-0.9s-0.4-0.4-0.7-0.5c-0.3-0.1-0.6-0.2-1-0.2c-1,0-1.6,0.3-1.9,1
		c-0.3,0.7-0.5,2-0.5,3.9V25.6z"/>
	<path class="st1" d="M84.4,38.7l4.9-11.5l-4.8-10.4h3.9l3.2,6.9l2.8-6.9h4l-5,10.9l5.1,11h-3.9l-3.4-7.4l-3,7.4H84.4z"/>
	<path class="st1" d="M106.6,39c-1.7,0-2.9-0.4-3.6-1.3c-0.7-0.9-1.1-2.2-1.1-3.9V19.5h-2.3v-2.7h2.3v-6.4h4v6.4h3.5v2.7h-3.5v14
		c0,0.9,0.1,1.5,0.4,1.8s0.8,0.5,1.6,0.5c0.6,0,1.1,0,1.5-0.1v3C108.2,38.9,107.3,39,106.6,39z"/>
</g>
<text transform="matrix(1 0 0 1 -90.8 -19.9805)" class="st1" style="font-family:'Oswald-Regular'; font-size:46.4407px;">Next</text>
</svg>
