<?xml version="1.0" encoding="utf-8"?>
<!-- Generator: Adobe Illustrator 21.0.0, SVG Export Plug-In . SVG Version: 6.00 Build 0)  -->
<svg version="1.1" id="Layer_1" xmlns="http://www.w3.org/2000/svg" xmlns:xlink="http://www.w3.org/1999/xlink" x="0px" y="0px"
	 viewBox="0 0 160 47" style="enable-background:new 0 0 160 47;" xml:space="preserve">
<style type="text/css">
	.st0{fill:#EE3925;}
	.st1{fill:#082340;}
</style>
<rect class="st0" width="160" height="47"/>
<g>
	<path class="st1" d="M33.4,28.9l-3-5.8h-3.1v5.8h-1.4V15.8h5c0.6,0,1.1,0.1,1.6,0.2s0.9,0.4,1.2,0.7s0.6,0.7,0.8,1.2
		c0.2,0.5,0.3,1,0.3,1.5c0,1-0.3,1.7-0.8,2.3s-1.2,1-2.1,1.2l3.1,5.9H33.4z M32.6,17.6c-0.5-0.4-1.1-0.6-1.9-0.6h-3.5v4.8h3.5
		c0.8,0,1.4-0.2,1.9-0.6c0.5-0.4,0.7-1,0.7-1.8C33.3,18.6,33.1,18,32.6,17.6z"/>
	<path class="st1" d="M38.5,24.7c0,1,0.2,1.8,0.7,2.3c0.5,0.5,1.1,0.8,2,0.8c0.5,0,1-0.1,1.3-0.2c0.3-0.2,0.7-0.4,1.1-0.8l0.9,0.8
		c-0.2,0.2-0.5,0.4-0.7,0.6s-0.5,0.3-0.7,0.4c-0.3,0.1-0.5,0.2-0.9,0.3c-0.3,0.1-0.7,0.1-1,0.1c-0.6,0-1.1-0.1-1.6-0.3
		c-0.5-0.2-0.9-0.5-1.2-0.8c-0.3-0.4-0.6-0.9-0.8-1.4c-0.2-0.6-0.3-1.3-0.3-2.1c0-1.5,0.3-2.6,1-3.4c0.7-0.8,1.6-1.2,2.7-1.2
		c1.2,0,2.1,0.4,2.7,1.2s1,1.9,1,3.2v0.6H38.5z M43.2,23.2c0-0.1,0-0.3,0-0.4c0-0.1,0-0.2-0.1-0.3c0-0.1-0.1-0.2-0.1-0.3
		c-0.2-0.4-0.4-0.7-0.8-1c-0.4-0.2-0.8-0.4-1.3-0.4s-0.9,0.1-1.3,0.4c-0.4,0.2-0.7,0.6-0.8,1c-0.1,0.2-0.2,0.5-0.2,0.7
		c0,0.2-0.1,0.5-0.1,0.8h4.8C43.3,23.5,43.3,23.3,43.2,23.2z"/>
	<path class="st1" d="M52.6,28.9V28c-0.4,0.4-0.7,0.6-1.1,0.8C51,28.9,50.5,29,49.9,29c-0.6,0-1.1-0.1-1.5-0.2
		c-0.4-0.1-0.7-0.3-1-0.6c-0.2-0.2-0.4-0.5-0.5-0.8s-0.2-0.7-0.2-1c0-0.8,0.3-1.4,0.8-1.9c0.5-0.5,1.3-0.7,2.3-0.7h2.7v-0.9
		c0-0.7-0.2-1.2-0.5-1.5s-1-0.5-1.8-0.5c-0.6,0-1,0.1-1.4,0.2c-0.3,0.2-0.6,0.4-0.9,0.8L47,21c0.4-0.5,0.9-0.9,1.4-1.1
		c0.5-0.2,1.1-0.3,1.8-0.3c1.2,0,2.1,0.3,2.7,0.8s0.9,1.3,0.9,2.3v6.1H52.6z M52.6,24.7H50c-1.4,0-2,0.5-2,1.6
		c0,0.5,0.2,0.9,0.5,1.2c0.3,0.3,0.9,0.4,1.6,0.4c0.4,0,0.8,0,1.1-0.1c0.3-0.1,0.6-0.2,0.9-0.5c0.3-0.3,0.5-0.8,0.5-1.6V24.7z"/>
	<path class="st1" d="M62.5,28.9v-1.1c-0.4,0.5-0.8,0.8-1.2,1c-0.4,0.2-0.9,0.2-1.4,0.2c-0.5,0-0.9-0.1-1.3-0.2
		c-0.4-0.1-0.7-0.3-0.9-0.6c-0.2-0.2-0.4-0.5-0.6-0.8c-0.1-0.3-0.3-0.6-0.3-0.9c-0.1-0.3-0.1-0.7-0.2-1c0-0.4,0-0.7,0-1.1
		c0-0.4,0-0.7,0-1.1c0-0.4,0.1-0.7,0.2-1c0.1-0.3,0.2-0.7,0.3-0.9c0.1-0.3,0.3-0.6,0.6-0.8c0.2-0.2,0.6-0.4,0.9-0.6
		c0.4-0.1,0.8-0.2,1.3-0.2c0.5,0,1,0.1,1.4,0.2s0.8,0.5,1.2,0.9l0-5.1h1.3v13.1H62.5z M62.4,23c0-0.4-0.2-0.8-0.3-1.1
		c-0.2-0.3-0.4-0.6-0.7-0.8c-0.3-0.2-0.7-0.3-1.2-0.3c-0.5,0-0.9,0.1-1.2,0.3c-0.3,0.2-0.5,0.5-0.7,0.8c-0.2,0.3-0.3,0.7-0.3,1.1
		c-0.1,0.4-0.1,0.8-0.1,1.3c0,0.4,0,0.9,0.1,1.3c0.1,0.4,0.2,0.8,0.3,1.1c0.2,0.3,0.4,0.6,0.7,0.8c0.3,0.2,0.7,0.3,1.2,0.3
		c0.5,0,0.9-0.1,1.2-0.3c0.3-0.2,0.5-0.5,0.7-0.8c0.2-0.3,0.3-0.7,0.3-1.1s0.1-0.8,0.1-1.3C62.5,23.9,62.4,23.5,62.4,23z"/>
	<path class="st1" d="M81.8,28.9v-10l-3.6,7.9H77l-3.6-7.9v10h-1.4V15.8h1.4l4.3,9.3l4.2-9.3h1.4v13.1H81.8z"/>
	<path class="st1" d="M93.4,26.3c-0.1,0.6-0.4,1.2-0.9,1.6c-0.3,0.3-0.7,0.6-1.1,0.8C91,28.9,90.5,29,89.9,29c-0.6,0-1-0.1-1.5-0.3
		c-0.4-0.2-0.8-0.4-1.1-0.8c-0.2-0.2-0.4-0.5-0.6-0.8c-0.1-0.3-0.3-0.6-0.3-0.9c-0.1-0.3-0.1-0.6-0.2-0.9s0-0.7,0-1c0-0.3,0-0.7,0-1
		c0-0.3,0.1-0.7,0.2-1c0.1-0.3,0.2-0.6,0.3-0.9c0.1-0.3,0.3-0.5,0.6-0.8c0.3-0.3,0.7-0.6,1.1-0.8c0.4-0.2,0.9-0.3,1.5-0.3
		c0.6,0,1,0.1,1.5,0.3c0.4,0.2,0.8,0.4,1.1,0.8c0.5,0.5,0.8,1,0.9,1.6c0.1,0.6,0.2,1.3,0.2,2S93.6,25.7,93.4,26.3z M92.3,23.6
		c0-0.3,0-0.5-0.1-0.8c0-0.2-0.1-0.5-0.2-0.7c-0.1-0.2-0.2-0.4-0.4-0.6c-0.4-0.4-1-0.7-1.7-0.7c-0.7,0-1.2,0.2-1.6,0.7
		c-0.2,0.2-0.3,0.4-0.4,0.6c-0.1,0.2-0.2,0.4-0.2,0.7c-0.1,0.2-0.1,0.5-0.1,0.8c0,0.3,0,0.5,0,0.8c0,0.3,0,0.5,0,0.8
		c0,0.3,0,0.5,0.1,0.8c0.1,0.2,0.1,0.5,0.2,0.7c0.1,0.2,0.2,0.4,0.4,0.6c0.4,0.4,1,0.7,1.6,0.7c0.7,0,1.2-0.2,1.7-0.7
		c0.2-0.2,0.3-0.3,0.4-0.6c0.1-0.2,0.2-0.5,0.2-0.7s0.1-0.5,0.1-0.8c0-0.3,0-0.5,0-0.8C92.3,24.1,92.3,23.8,92.3,23.6z"/>
	<path class="st1" d="M101.5,21.5c-0.2-0.2-0.5-0.4-0.7-0.5c-0.2-0.1-0.5-0.1-0.9-0.1c-0.3,0-0.6,0.1-0.9,0.2
		c-0.3,0.1-0.5,0.3-0.7,0.5c-0.2,0.2-0.3,0.5-0.4,0.8s-0.2,0.6-0.2,1v5.6h-1.3v-9.1h1.3v1.1c0.2-0.4,0.6-0.7,1.1-0.9
		c0.5-0.2,1-0.3,1.5-0.3c0.4,0,0.8,0.1,1.2,0.2c0.4,0.1,0.7,0.3,1,0.7L101.5,21.5z"/>
	<path class="st1" d="M104.4,24.7c0,1,0.2,1.8,0.7,2.3c0.5,0.5,1.1,0.8,2,0.8c0.5,0,1-0.1,1.3-0.2c0.3-0.2,0.7-0.4,1.1-0.8l0.9,0.8
		c-0.2,0.2-0.5,0.4-0.7,0.6c-0.2,0.2-0.5,0.3-0.7,0.4c-0.3,0.1-0.5,0.2-0.9,0.3c-0.3,0.1-0.7,0.1-1,0.1c-0.6,0-1.1-0.1-1.6-0.3
		c-0.5-0.2-0.9-0.5-1.2-0.8c-0.3-0.4-0.6-0.9-0.8-1.4s-0.3-1.3-0.3-2.1c0-1.5,0.3-2.6,1-3.4c0.7-0.8,1.6-1.2,2.7-1.2
		c1.2,0,2.1,0.4,2.7,1.2s1,1.9,1,3.2v0.6H104.4z M109.2,23.2c0-0.1,0-0.3,0-0.4s0-0.2-0.1-0.3c0-0.1-0.1-0.2-0.1-0.3
		c-0.2-0.4-0.4-0.7-0.8-1c-0.4-0.2-0.8-0.4-1.3-0.4s-0.9,0.1-1.3,0.4c-0.4,0.2-0.7,0.6-0.8,1c-0.1,0.2-0.2,0.5-0.2,0.7
		c0,0.2-0.1,0.5-0.1,0.8h4.8C109.2,23.5,109.2,23.3,109.2,23.2z"/>
	<path class="st1" d="M126.8,31.2h-1.7l6.7-6.7h-14.5v-1.3h14.5l-6.7-6.7h1.7l7.3,7.3L126.8,31.2z"/>
</g>
<text transform="matrix(1 0 0 1 270.4315 -691.7245)" class="st1" style="font-family:'DIN-Regular'; font-size:18.4042px;">Read More &gt;</text>
</svg>
