<?xml version="1.0" encoding="utf-8"?>
<!-- Generator: Adobe Illustrator 21.0.0, SVG Export Plug-In . SVG Version: 6.00 Build 0)  -->
<svg version="1.1" xmlns="http://www.w3.org/2000/svg" xmlns:xlink="http://www.w3.org/1999/xlink" x="0px" y="0px"
	 viewBox="0 0 317 171" style="enable-background:new 0 0 317 171;" xml:space="preserve">
<style type="text/css">
	.st0{display:none;}
	.st1{display:inline;}
	.st2{fill:#082340;}
	.st3{fill:#EE3925;}
</style>
<g id="Layer_2" class="st0">
	<g class="st1">
		<rect x="58.1" y="-22.8" class="st2" width="212.6" height="184.3"/>
	</g>
</g>
<g id="Layer_1">
	<g>
		<g>
			<path class="st3" d="M59.7,67.2v0.7c1.3,0,1.7,0.4,1.7,1.5v17.1c0,6.9-3,10.6-9,10.6c-6.1,0-8.1-3.9-8.1-10.7v-17
				c0-1.1,0.3-1.5,1.7-1.5v-0.7l-7.2,0v0.7c1.3,0,1.6,0.4,1.6,1.5v17c0,7.8,3.4,11.9,11.1,11.9c7.5,0,11-3.9,11-11.8V69.4
				c0-1.1,0.3-1.5,1.7-1.5v-0.7L59.7,67.2z"/>
			<path class="st3" d="M133.5,93.8L123.9,68c-0.3-0.9-0.4-1.2-0.7-1.2c-0.3,0-0.5,0.3-0.8,1.2l-9.5,26.2c-0.9,2.3-1.6,2.7-2.6,2.7
				v0.7l4.9,0v-0.7c-0.1,0-0.2,0-0.3,0c-0.9,0-1.4-0.2-1.4-0.9c0-0.3,0.1-0.8,0.3-1.5l2.3-6.4h11.2l2.3,6.4c0.2,0.6,0.4,1.1,0.4,1.4
				c0,0.7-0.5,1-1.4,1c-0.1,0-0.1,0-0.2,0v0.7l7.6,0v-0.7C134.9,96.9,134.5,96.6,133.5,93.8z M116.6,87.2l5.2-14.6l5.3,14.6H116.6z"
				/>
			<path class="st3" d="M223.6,93.8L214,68c-0.3-0.9-0.4-1.2-0.7-1.2s-0.5,0.3-0.8,1.2L203,94.2c-0.9,2.3-1.6,2.7-2.6,2.7v0.7l4.9,0
				v-0.7c-0.1,0-0.2,0-0.3,0c-0.9,0-1.4-0.2-1.4-0.9c0-0.3,0.1-0.8,0.3-1.5l2.3-6.4h11.2l2.3,6.4c0.2,0.6,0.3,1.1,0.3,1.4
				c0,0.7-0.5,1-1.3,1c-0.1,0-0.1,0-0.2,0v0.7l7.6,0v-0.7C225,96.9,224.6,96.6,223.6,93.8z M206.7,87.2l5.2-14.6l5.3,14.6H206.7z"/>
			<path class="st3" d="M157.5,67.2v0.7c0,0,0,0,0,0c1.4,0,1.7,0.3,1.7,1.5v21.7l-16.2-23.2c-0.3-0.5-0.6-0.7-1.2-0.7h-0.7l-3.7,0
				V68c1.3,0,1.7,0.1,1.7,1.4v26.1c0,1.1-0.3,1.5-1.7,1.5v0.7h4.4v-0.7c-1.3,0-1.7-0.4-1.7-1.5V70.6l18.9,26.9
				c0.3,0.5,0.6,0.7,0.8,0.7c0.3,0,0.3-0.3,0.3-0.8V69.4c0-1.1,0.3-1.5,1.7-1.5v-0.7L157.5,67.2z"/>
			<path class="st3" d="M184.6,67.1c-0.2,0-0.5,0-0.8,0l0,0l-8.1,0v0.7c1.3,0,1.6,0.4,1.6,1.5v26.1c0,1.1-0.3,1.5-1.6,1.5v0.7l7.4,0
				l0,0c0.5,0,0.9,0,1.4,0c10.5,0,16.6-4.5,16.6-15.1C201.2,71.5,194.5,67.1,184.6,67.1z M184.3,96.9c-2.8,0-3.1-0.3-3.1-1.2V69.3
				c0-1.1,0.2-1.4,2.7-1.4c9.1,0,13.1,3.9,13.1,14.5C197,92.7,193.3,96.9,184.3,96.9z"/>
			<path class="st3" d="M278.3,67.9v-0.7h-7.2v0.7c1.3,0,1.7,0.3,1.7,1.5v26.1c0,1.1-0.3,1.5-1.7,1.5v0.7h7.2v-0.7
				c-1.3,0-1.7-0.3-1.7-1.5V69.4C276.7,68.2,277,67.9,278.3,67.9z"/>
			<g>
				<path class="st3" d="M81.7,97.4c0,0,0.1,0.1,0.3,0.1C81.8,97.4,81.8,97.4,81.7,97.4L81.7,97.4z"/>
				<path class="st3" d="M101.6,81.4L101.6,81.4c3-0.4,6.2-2.4,6.2-6.9c0-5.4-4-7.4-11-7.4h-1c-0.3,0-0.7,0-1.1,0l0,0l-7.3,0v0.8
					c1.3,0,1.7,0.3,1.7,1.4v26.2c0,0.7-0.1,1.1-0.6,1.3c0,0-0.1,0-0.1,0c-0.1,0-0.1,0-0.2,0.1l0,0c-0.1,0-0.1,0-0.2,0.1
					c-0.2,0.1-0.4,0.1-0.7,0.1c-0.7,0.1-1.7,0.1-2.6-0.3c-0.2-0.1-0.4-0.2-0.6-0.4c-1-0.9-1.8-3-3.3-6.5c-1.3-3-3.1-5-6.5-5.8
					c4.8-0.6,8.1-2.8,8.1-8.2c0-6.3-4.3-8.9-12.2-8.9h-0.9c-0.4,0-2.4,0-2.8,0v0.8c0.1,0,1.7,0,1.9,0c1.3,0,2.7,0,4,0.2
					c0.9,0.1,1.8,0.3,2.6,0.7c0.7,0.4,1.3,0.8,1.8,1.4c0.6,0.6,1,1.4,1.3,2.2c0.3,1,0.4,2,0.4,3c0,0.1,0,0.3,0,0.4
					c0,0.9-0.1,1.8-0.3,2.7c-0.2,0.8-0.5,1.5-1,2.2c-0.4,0.6-1,1.1-1.5,1.6c-0.6,0.5-1.3,0.8-2.1,1c-1.1,0.2-2.2,0.3-3.3,0.3
					c-0.7,0-1.4,0-2.1,0.1c-0.1,0-0.1,0-0.2,0v0.8l1.4,0c4.3,0.2,6.1,3.1,7.7,6.7c1.5,3.4,2.8,5.4,4.4,6.2c0.1,0,0.2,0.1,0.3,0.1
					c0.4,0.2,1.5,0.4,3.9,0.4c0.5,0,1.1,0,1.7,0l6.7-0.1h3.2c6.2,0,12.2-1.1,12.2-8.3C109.7,84.3,106.9,82.1,101.6,81.4z M93.1,69.4
					c0-1.3,0.4-1.4,3.1-1.4H97c4.2,0,6.9,1.5,6.9,6.5c0,4.2-2.3,6.6-6.8,6.6h-4V69.4z M97.4,96.8H95c-1.7,0-1.9-0.2-1.9-1.4V81.9H97
					c6,0,8.6,2.6,8.6,7.5C105.6,95.2,101.7,96.8,97.4,96.8z"/>
			</g>
			<path class="st3" d="M267,92.8c-0.3,2.6-2.2,4-6.8,4H250l16.9-28.3c0.3-0.4,0.3-0.7,0.3-1c0-0.3-0.1-0.4-0.5-0.4h-18.8
				c-1,0-1.2,0.3-1.2,1.1l-0.2,3.6h0.8c0.3-2.7,1.9-3.8,6.8-3.8h9.1l-16.3,27.2l-0.5,0.8l0,0c-0.1,0.2-0.2,0.3-0.3,0.4
				c-0.6,0.7-1.2,0.8-1.3,0.9c-0.1,0-0.2,0-0.3,0.1c-0.7,0.1-1.7,0.1-2.6-0.3c-0.2-0.1-0.4-0.2-0.6-0.4c-1-0.9-1.8-3-3.3-6.5
				c-1.3-3-3.1-5-6.5-5.8c4.8-0.6,8.1-2.8,8.1-8.2c0-6.3-4.3-8.9-12.2-8.9h-0.9c-0.4,0-2.5,0-3,0v0.8c0.1,0,1.9,0,2,0
				c1.3,0,2.7,0,4,0.2c0.9,0.1,1.8,0.3,2.6,0.7c0.7,0.4,1.3,0.8,1.8,1.4c0.6,0.6,1,1.4,1.3,2.2c0.3,1,0.4,2,0.4,3c0,0.1,0,0.3,0,0.4
				c0,0.9-0.1,1.8-0.3,2.7c-0.2,0.8-0.5,1.5-1,2.2c-0.4,0.6-1,1.1-1.5,1.6c-0.6,0.5-1.4,0.8-2.1,1c-1.1,0.2-2.2,0.3-3.3,0.3
				c-0.7,0-1.4,0-2.1,0.1c-0.1,0-0.1,0-0.2,0v0.8l1.4,0c4.3,0.2,6.1,3.1,7.7,6.7c1.5,3.4,2.8,5.4,4.4,6.2l0,0c0,0,0.1,0,0.3,0.1
				c0.4,0.2,1.5,0.4,3.9,0.4c0.5,0,1.1,0,1.7,0l3.6-0.1l11.1-0.1h7.2c1,0,1.2-0.3,1.3-1.1l0.3-3.8v0H267z"/>
		</g>
		<g>
			<path class="st3" d="M137.2,16v36.4h-4.3V16h-11.7v-3.8h27.6V16H137.2z"/>
			<path class="st3" d="M173.5,52.4V35.3c0-2.5-0.6-4.3-1.8-5.5c-1.2-1.2-2.9-1.8-5-1.8c-2.1,0-3.8,0.6-5.1,1.9
				c-1.3,1.2-1.9,3.1-1.9,5.5v17.2h-4.1V12.2h4.1v15.5c2-2.3,4.6-3.4,7.8-3.4c3.2,0,5.6,0.9,7.4,2.8c1.8,1.8,2.6,4.4,2.6,7.5v17.9
				H173.5z"/>
			<path class="st3" d="M190,39.6c0,3,0.7,5.4,2.1,7.1c1.4,1.7,3.4,2.5,6.1,2.5c1.6,0,3-0.3,4-0.8c1.1-0.5,2.2-1.3,3.3-2.4l2.8,2.4
				c-0.7,0.7-1.4,1.3-2.1,1.9c-0.7,0.5-1.4,1-2.2,1.4c-0.8,0.4-1.7,0.6-2.6,0.8c-1,0.2-2,0.3-3.2,0.3c-1.8,0-3.5-0.3-5-0.8
				c-1.5-0.6-2.8-1.4-3.8-2.6c-1.1-1.2-1.9-2.6-2.5-4.4c-0.6-1.8-0.9-3.9-0.9-6.4c0-4.5,1-8,3.1-10.5c2-2.5,4.8-3.7,8.4-3.7
				c3.6,0,6.4,1.2,8.4,3.6c2,2.4,3,5.7,3,9.8v1.9H190z M204.6,35.1c0-0.4-0.1-0.8-0.1-1.1c-0.1-0.3-0.1-0.7-0.2-1
				c-0.1-0.3-0.2-0.7-0.4-1c-0.5-1.3-1.4-2.3-2.5-3.1c-1.2-0.8-2.5-1.1-4-1.1s-2.8,0.4-4,1.1c-1.2,0.8-2,1.8-2.5,3.1
				c-0.3,0.8-0.5,1.4-0.6,2c-0.1,0.6-0.2,1.5-0.2,2.6h14.7C204.7,36,204.6,35.5,204.6,35.1z"/>
		</g>
		<g>
			<path class="st3" d="M134.4,140.6c-0.7,1.4-1.6,2.6-2.8,3.6c-1.2,1-2.7,1.7-4.4,2.3c-1.7,0.5-3.6,0.8-5.7,0.8
				c-3,0-5.6-0.4-7.7-1.2c-2.1-0.8-4.2-2.2-6.1-4.1l2.9-2.9c1.7,1.7,3.3,2.8,5,3.5s3.7,1,5.9,1c2.9,0,5.3-0.7,7-2
				c1.7-1.3,2.5-3.1,2.5-5.5c0-1.1-0.2-2-0.5-2.9c-0.3-0.9-0.8-1.6-1.4-2.1c-0.6-0.6-1.3-1-2-1.2s-1.8-0.5-3.3-0.7l-4.7-0.7
				c-3.2-0.5-5.7-1.5-7.4-3.1c-2-1.8-3.1-4.3-3.1-7.5c0-1.7,0.3-3.3,0.9-4.7c0.6-1.4,1.5-2.6,2.6-3.6c1.1-1,2.5-1.7,4-2.3
				c1.6-0.5,3.4-0.8,5.4-0.8c2.6,0,4.8,0.3,6.6,1s3.6,1.8,5.4,3.4l-2.8,2.8c-1.2-1.1-2.6-2-4-2.6c-1.4-0.6-3.2-0.9-5.4-0.9
				c-2.7,0-4.8,0.7-6.3,2c-1.5,1.4-2.2,3.2-2.2,5.4c0,2,0.6,3.6,1.8,4.6c0.6,0.5,1.4,1,2.4,1.4c1,0.4,2,0.7,3,0.8l4.4,0.7
				c0.9,0.2,1.8,0.3,2.5,0.5c0.7,0.2,1.4,0.4,2,0.6c0.6,0.2,1.1,0.5,1.6,0.8c0.5,0.3,0.9,0.6,1.3,1c2.3,1.9,3.4,4.6,3.4,8
				C135.4,137.6,135.1,139.2,134.4,140.6z"/>
			<path class="st3" d="M151.5,146.9c-1.2,0-2.3-0.2-3.1-0.6c-0.9-0.4-1.6-0.9-2.2-1.6c-0.6-0.7-1-1.5-1.3-2.4
				c-0.3-0.9-0.5-1.9-0.5-2.9v-17.1h-3.5v-3.1h3.5v-8.7h4.1v8.7h5.9v3.1h-5.9v17c0,1.3,0.3,2.3,0.9,3c0.6,0.7,1.6,1.1,2.9,1.1h2.1
				v3.5H151.5z"/>
			<path class="st3" d="M182.6,139.1c-0.4,1.9-1.3,3.6-2.7,5c-1,1-2.1,1.8-3.5,2.3c-1.3,0.6-2.8,0.8-4.5,0.8c-1.7,0-3.2-0.3-4.5-0.8
				s-2.5-1.3-3.5-2.3c-0.7-0.7-1.3-1.5-1.7-2.3c-0.4-0.8-0.8-1.7-1-2.7c-0.2-0.9-0.4-1.9-0.5-2.9c-0.1-1-0.1-2.1-0.1-3.2
				c0-1.1,0-2.1,0.1-3.1c0.1-1,0.3-2,0.5-2.9c0.2-0.9,0.6-1.8,1-2.7c0.4-0.8,1-1.6,1.7-2.3c1-1,2.1-1.8,3.5-2.3
				c1.3-0.6,2.8-0.8,4.5-0.8c1.7,0,3.2,0.3,4.5,0.8c1.3,0.6,2.5,1.3,3.5,2.3c1.4,1.4,2.3,3.1,2.7,5c0.4,1.9,0.7,3.9,0.7,6.1
				C183.3,135.1,183.1,137.2,182.6,139.1z M179.1,130.6c0-0.8-0.1-1.6-0.3-2.3c-0.2-0.8-0.4-1.5-0.7-2.1c-0.3-0.7-0.7-1.3-1.2-1.8
				c-1.4-1.4-3.1-2-5.1-2c-2,0-3.7,0.7-5,2c-0.5,0.5-0.9,1.1-1.2,1.8c-0.3,0.7-0.5,1.4-0.7,2.1c-0.2,0.8-0.3,1.5-0.3,2.3
				c0,0.8-0.1,1.6-0.1,2.4c0,0.8,0,1.6,0.1,2.4c0,0.8,0.1,1.6,0.3,2.3c0.2,0.8,0.4,1.5,0.7,2.1c0.3,0.7,0.7,1.3,1.2,1.8
				c1.4,1.4,3,2,5,2c2,0,3.7-0.7,5.1-2c0.5-0.5,0.9-1.1,1.2-1.8c0.3-0.7,0.5-1.4,0.7-2.1c0.1-0.8,0.2-1.5,0.3-2.3
				c0-0.8,0.1-1.6,0.1-2.4C179.2,132.2,179.2,131.4,179.1,130.6z"/>
			<path class="st3" d="M207.5,124.4c-0.8-0.8-1.5-1.3-2.1-1.6c-0.7-0.3-1.6-0.5-2.7-0.5c-1,0-1.9,0.2-2.8,0.6
				c-0.8,0.4-1.5,0.9-2.1,1.6c-0.6,0.7-1,1.5-1.3,2.4s-0.5,1.9-0.5,2.9v17.1H192v-27.8h4.1v3.4c0.8-1.2,1.8-2.1,3.3-2.7
				c1.4-0.7,2.9-1,4.6-1c1.3,0,2.5,0.2,3.6,0.6c1.1,0.4,2.1,1.1,3.1,2L207.5,124.4z"/>
			<path class="st3" d="M222.7,153.6c-0.5,1.5-1.2,2.6-2,3.3c-0.8,0.7-1.6,1.2-2.5,1.5c-0.9,0.3-1.9,0.4-2.9,0.4h-1.8v-3.6h1.2
				c1.4,0,2.4-0.3,3-0.8c0.6-0.5,1.1-1.4,1.6-2.7l2-5.4l-10-27.3h4.4l7.6,22.3l7.6-22.3h4.4L222.7,153.6z"/>
		</g>
	</g>
</g>
</svg>
