<?xml version="1.0" encoding="utf-8"?>
<!-- Generator: Adobe Illustrator 21.0.0, SVG Export Plug-In . SVG Version: 6.00 Build 0)  -->
<svg version="1.1" id="Layer_1" xmlns="http://www.w3.org/2000/svg" xmlns:xlink="http://www.w3.org/1999/xlink" x="0px" y="0px"
	 viewBox="0 0 350.3 189" style="enable-background:new 0 0 350.3 189;" xml:space="preserve">
<style type="text/css">
	.st0{display:none;}
	.st1{display:inline;}
	.st2{fill:#082340;}
	.st3{fill:#EE3925;}
</style>
<g id="Layer_2" class="st0">
	<g class="st1">
		<rect x="74.8" y="-13.8" class="st2" width="212.6" height="184.3"/>
	</g>
</g>
<g id="Layer_1_1_">
	<g>
		<g>
			<path class="st3" d="M64.8,77.3v0.8c1.5,0,1.9,0.4,1.9,1.7v19.1c0,7.7-3.4,11.9-10.1,11.9c-6.9,0-9.1-4.3-9.1-12v-19
				c0-1.2,0.4-1.6,1.9-1.7v-0.8h-8v0.8c1.5,0,1.8,0.4,1.8,1.7v19c0,8.7,3.8,13.3,12.4,13.3c8.4,0,12.2-4.4,12.2-13.2V79.7
				c0-1.2,0.4-1.7,1.9-1.7v-0.8L64.8,77.3z"/>
			<path class="st3" d="M147.3,107l-10.7-28.9c-0.3-1-0.5-1.3-0.8-1.3s-0.5,0.3-0.9,1.4l-10.6,29.3c-1,2.6-1.8,3-2.9,3.1v0.8h5.5
				v-0.8c-0.1,0-0.2,0-0.3,0c-1,0-1.6-0.2-1.6-1c0-0.4,0.1-0.9,0.4-1.7l2.6-7.2h12.5l2.6,7.1c0.2,0.7,0.4,1.2,0.4,1.6
				c0,0.8-0.5,1.1-1.5,1.1c-0.1,0-0.1,0-0.2,0v0.8h8.5v-0.8C148.8,110.5,148.4,110.1,147.3,107z M128.4,99.6l5.8-16.3l5.9,16.3
				H128.4z"/>
			<path class="st3" d="M247.9,107l-10.7-28.9c-0.3-1-0.5-1.3-0.8-1.3s-0.5,0.3-0.9,1.4l-10.6,29.3c-1,2.6-1.8,3-2.9,3.1v0.8h5.5
				v-0.8c-0.1,0-0.2,0-0.3,0c-1,0-1.6-0.2-1.6-1c0-0.4,0.1-0.9,0.4-1.7l2.6-7.2h12.5l2.6,7.1c0.2,0.7,0.4,1.2,0.4,1.6
				c0,0.8-0.5,1.1-1.5,1.1c-0.1,0-0.1,0-0.2,0v0.8h8.5v-0.8C249.5,110.5,249.1,110.1,247.9,107z M229.1,99.6l5.8-16.3l5.9,16.3
				H229.1z"/>
			<path class="st3" d="M174,77.2V78l0,0c1.5,0,1.8,0.4,1.8,1.7v24.2L157.7,78c-0.4-0.5-0.7-0.7-1.3-0.7h-0.7h-4.1v0.8
				c1.4,0,1.9,0.2,1.9,1.5v29.3c0,1.2-0.4,1.6-1.9,1.7v0.8h4.9v-0.8c-1.5,0-1.9-0.4-1.9-1.7V81l21.2,30c0.4,0.6,0.6,0.8,0.9,0.8
				c0.3,0,0.4-0.3,0.4-0.9V79.7c0-1.3,0.4-1.7,1.9-1.7v-0.8H174z"/>
			<path class="st3" d="M204.3,77.2c-0.3,0-0.6,0-0.8,0l0,0h-9V78c1.5,0,1.8,0.4,1.8,1.7v29.2c0,1.2-0.3,1.6-1.8,1.7v0.8h8.3l0,0
				c0.5,0,1,0,1.5,0c11.7,0,18.6-5,18.6-16.9C222.8,82.1,215.4,77.2,204.3,77.2z M204.1,110.4c-3.2,0-3.5-0.3-3.5-1.4V79.6
				c0-1.3,0.2-1.6,3.1-1.6c10.2,0,14.6,4.3,14.6,16.1C218.2,105.7,214,110.4,204.1,110.4z"/>
			<path class="st3" d="M309,78v-0.8h-8V78c1.5,0,1.9,0.4,1.9,1.7v29.2c0,1.3-0.4,1.7-1.9,1.7v0.8h8v-0.8c-1.5,0-1.8-0.4-1.8-1.7
				V79.7C307.2,78.4,307.5,78,309,78z"/>
			<g>
				<path class="st3" d="M89.4,111c0,0,0.1,0.1,0.3,0.1C89.6,111,89.5,111,89.4,111L89.4,111z"/>
				<path class="st3" d="M111.7,93.1L111.7,93.1c3.3-0.5,7-2.7,7-7.7c0-6-4.5-8.3-12.2-8.3h-1.1c-0.4,0-0.8,0-1.2,0l0,0h-8.1V78
					c1.5,0,1.9,0.4,1.9,1.6v29.3c0,0.8-0.1,1.2-0.6,1.4h-0.1c-0.1,0-0.1,0-0.3,0.1l0,0c-0.1,0-0.1,0-0.2,0.1
					c-0.2,0.1-0.5,0.1-0.7,0.2c-0.8,0.1-1.9,0.2-2.9-0.4c-0.2-0.1-0.5-0.3-0.7-0.4c-1.2-1-2-3.4-3.7-7.3c-1.5-3.3-3.5-5.5-7.2-6.5
					c5.4-0.7,9-3.2,9-9.2c0-7-4.8-9.9-13.7-9.9h-1c-0.5,0-2.7,0-3.2,0v0.9c0.1,0,2,0,2.1,0c1.5,0,3,0,4.4,0.2c1,0.1,2,0.4,2.9,0.8
					c0.8,0.4,1.4,0.9,2,1.6s1.1,1.5,1.4,2.4c0.3,1.1,0.4,2.2,0.5,3.3c0,0.1,0,0.3,0,0.4c0,1-0.1,2.1-0.3,3c-0.2,0.9-0.6,1.7-1.1,2.4
					c-0.5,0.7-1.1,1.3-1.7,1.8c-0.7,0.5-1.5,0.9-2.4,1.1c-1.2,0.3-2.4,0.3-3.6,0.4c-0.8,0-1.5,0-2.3,0.1c-0.1,0-0.1,0-0.2,0v0.9H76
					c4.8,0.2,6.8,3.5,8.6,7.5c1.7,3.8,3.1,6,5,7c0.1,0,0.2,0.1,0.3,0.1c0.5,0.2,1.7,0.4,4.4,0.4c0.6,0,1.2,0,1.9,0l7.4-0.1h3.5
					c7,0,13.7-1.3,13.7-9.2C120.6,96.4,117.5,93.9,111.7,93.1z M102.1,79.7c0-1.5,0.5-1.6,3.5-1.6h0.9c4.7,0,7.7,1.7,7.7,7.3
					c0,4.7-2.5,7.3-7.6,7.3h-4.5V79.7z M107,110.4h-2.7c-1.9,0-2.1-0.2-2.1-1.6V93.7h4.4c6.7,0,9.6,2.9,9.6,8.4
					C116.1,108.6,111.7,110.4,107,110.4z"/>
			</g>
			<path class="st3" d="M296.4,105.9c-0.3,2.9-2.5,4.5-7.6,4.5h-11.4l18.9-31.6c0.3-0.4,0.3-0.7,0.3-1.1c0-0.3-0.1-0.4-0.6-0.4
				h-21.1c-1.1,0-1.3,0.3-1.4,1.2l-0.3,4h0.9c0.4-3,2.1-4.2,7.5-4.2h10.2l-18.1,30.2l-0.5,0.9l0,0c-0.1,0.2-0.2,0.3-0.3,0.4
				c-0.6,0.7-1.3,0.9-1.4,1c-0.1,0-0.2,0-0.4,0.1c-0.8,0.1-1.9,0.2-2.9-0.3c-0.2-0.1-0.5-0.3-0.7-0.4c-1.2-1-2-3.4-3.7-7.3
				c-1.5-3.3-3.5-5.5-7.2-6.5c5.4-0.7,9-3.2,9-9.2c0-7-4.8-9.9-13.7-9.9h-1c-0.5,0-2.8,0-3.3,0v0.9c0.1,0,2.1,0,2.3,0
				c1.5,0,3,0,4.4,0.2c1,0.1,2,0.4,2.9,0.8c0.8,0.4,1.4,0.9,2,1.6s1.1,1.5,1.4,2.4c0.3,1.1,0.4,2.2,0.5,3.3c0,0.1,0,0.3,0,0.4
				c0,1-0.1,2.1-0.3,3c-0.2,0.9-0.6,1.7-1.1,2.4c-0.5,0.7-1.1,1.3-1.7,1.8c-0.7,0.5-1.5,0.9-2.4,1.1c-1.2,0.3-2.4,0.3-3.6,0.4
				c-0.8,0-1.5,0-2.3,0.1c-0.1,0-0.1,0-0.2,0v0.9h1.6c4.8,0.2,6.8,3.5,8.6,7.5c1.7,3.8,3.1,6,5,7l0,0c0,0,0.1,0.1,0.3,0.1
				c0.5,0.2,1.7,0.4,4.4,0.4c0.6,0,1.2,0,1.9,0l4-0.1l12.4-0.1h8c1.1,0,1.3-0.3,1.4-1.2l0.3-4.2l0,0h-1V105.9z"/>
		</g>
		<g>
			<path class="st3" d="M144.2,13.4v40.7h-4.8V13.4h-13V9.1h30.8v4.3H144.2z"/>
			<path class="st3" d="M184.7,54.1V34.9c0-2.7-0.7-4.8-2-6.2c-1.3-1.4-3.2-2.1-5.6-2.1c-2.4,0-4.2,0.7-5.7,2.1
				c-1.4,1.4-2.1,3.4-2.1,6.1V54h-4.5V9h4.5v17.3c2.2-2.5,5.1-3.8,8.7-3.8c3.5,0,6.3,1,8.2,3.1c2,2.1,2.9,4.9,2.9,8.4v20L184.7,54.1
				L184.7,54.1z"/>
			<path class="st3" d="M203.2,39.7c0,3.4,0.8,6,2.3,7.9c1.6,1.9,3.8,2.8,6.8,2.8c1.8,0,3.3-0.3,4.5-0.9c1.2-0.6,2.4-1.5,3.6-2.7
				l3.1,2.7c-0.8,0.8-1.6,1.5-2.4,2.1c-0.8,0.6-1.6,1.1-2.5,1.5s-1.9,0.7-2.9,0.9c-1.1,0.2-2.3,0.3-3.6,0.3c-2.1,0-3.9-0.3-5.6-0.9
				c-1.7-0.6-3.1-1.6-4.3-2.9c-1.2-1.3-2.1-3-2.7-5c-0.7-2-1-4.4-1-7.1c0-5.1,1.1-9,3.4-11.8c2.3-2.8,5.4-4.2,9.4-4.2s7.2,1.3,9.4,4
				s3.3,6.4,3.3,11v2.1h-20.8V39.7z M219.5,34.7c0-0.5-0.1-0.9-0.2-1.3c-0.1-0.4-0.1-0.7-0.3-1.1c-0.1-0.4-0.2-0.7-0.4-1.2
				c-0.6-1.4-1.5-2.6-2.8-3.4s-2.8-1.3-4.4-1.3s-3.1,0.4-4.4,1.3c-1.3,0.8-2.3,2-2.8,3.4c-0.3,0.8-0.6,1.6-0.7,2.3
				c-0.1,0.7-0.2,1.6-0.3,2.9h16.4C219.6,35.7,219.5,35.1,219.5,34.7z"/>
		</g>
		<g>
			<path class="st3" d="M136.5,179.5h-3.9l-14.8-45h5.1l11.7,36.4l11.7-36.4h5.1L136.5,179.5z"/>
			<path class="st3" d="M157.3,139.6v-5.1h5.1v5.1H157.3z M157.5,179.5v-31.1h4.5v31.1H157.5z"/>
			<path class="st3" d="M195,174.5c-0.6,1.2-1.5,2.1-2.6,3c-1.1,0.8-2.4,1.4-4,1.9c-1.5,0.4-3.3,0.6-5.1,0.6c-2.7,0-5-0.3-7.1-1
				s-4-1.8-5.7-3.5l3-3c1.2,1.3,2.7,2.2,4.3,2.8c1.6,0.5,3.4,0.8,5.4,0.8c2.6,0,4.6-0.5,6.1-1.4s2.2-2.3,2.2-4.1
				c0-1.3-0.4-2.4-1.2-3.2s-2.1-1.2-3.9-1.4l-5.1-0.4c-3-0.3-5.3-1.1-6.9-2.4c-1.6-1.4-2.4-3.3-2.4-5.9c0-1.4,0.3-2.7,0.9-3.8
				c0.6-1.1,1.4-2.1,2.4-2.8c1-0.8,2.2-1.4,3.6-1.8c1.4-0.4,2.9-0.6,4.6-0.6c2.2,0,4.3,0.3,6.2,0.8s3.6,1.4,5,2.5l-3,3
				c-1.1-0.8-2.3-1.5-3.8-1.9c-1.4-0.4-2.9-0.6-4.5-0.6c-2.3,0-4,0.5-5.2,1.4s-1.8,2.2-1.8,3.8c0,1.3,0.4,2.4,1.2,3.2
				s2.2,1.2,4.2,1.4l5,0.4c1.3,0.1,2.6,0.4,3.7,0.7c1.1,0.3,2.1,0.8,2.9,1.5c0.8,0.7,1.4,1.5,1.9,2.5c0.4,1,0.7,2.2,0.7,3.7
				C195.9,172,195.6,173.3,195,174.5z"/>
			<path class="st3" d="M204.6,139.6v-5.1h5.1v5.1H204.6z M204.8,179.5v-31.1h4.5v31.1H204.8z"/>
			<path class="st3" d="M229.5,179.5c-1.3,0-2.5-0.2-3.5-0.7c-1-0.4-1.8-1-2.5-1.8s-1.1-1.6-1.5-2.7c-0.3-1-0.5-2.1-0.5-3.2V152
				h-3.9v-3.5h3.9v-9.7h4.5v9.7h6.6v3.5H226v19c0,1.4,0.3,2.5,1,3.3s1.7,1.2,3.2,1.2h2.4v3.9h-3.1V179.5z"/>
		</g>
	</g>
</g>
</svg>
